<?xml version="1.0" encoding="UTF-8"?><svg id="b" xmlns="http://www.w3.org/2000/svg" viewBox="0 0 42.02 28.75"><g id="c"><g id="d"><g id="e"><path d="M9.53,1.17l-.05,7.25c0,3.01-1.79,4.18-4.2,4.18-2.07,0-4.71-.92-4.71-4.06V1.17c-.02-.36-.24-.67-.57-.8h3.4c-.32.14-.53.45-.54.8v7.43c0,1.24.43,3,2.73,3,2.11,0,2.86-1.38,2.86-3.14l-.03-7.28c.01-.34-.18-.65-.48-.8h2.06c-.3.15-.48.46-.47.8Z" fill="#004785"/><path d="M14.33,12.6c-1.19-.01-2.35-.31-3.4-.86l-.09-3c.34,1.26,1.4,2.92,3.24,2.92s2.29-1.26,2.29-2.13c0-1.71-1.54-1.93-3.14-2.8s-2.34-1.86-2.34-3.21c-.01-2.39,2.24-3.36,3.85-3.36.93,0,1.85.22,2.68.65l.09,2.62c-.25-.94-1.26-2.36-2.96-2.36-1.35,0-1.88.94-1.88,1.71,0,1.08.76,1.49,2.43,2.25,1.67.76,3.37,1.35,3.37,3.82,0,2.21-1.95,3.72-4.13,3.72Z" fill="#004785"/><path d="M24.18,12.42h-4.55c.29-.16.47-.47.46-.8V1.17c.01-.33-.16-.64-.46-.8h4.71c5.83,0,7,4.13,7,5.85,0,3.08-2.37,6.2-7.16,6.2ZM23.97,1.26c-.43,0-1.37,0-1.63.04v10.21h1.43c4,0,5.12-2.7,5.12-5.28-.01-2.13-1.25-4.96-4.92-4.96Z" fill="#004785"/><path d="M38.23,12.42c.46-.25.55-.49.43-.86-.05-.18-.51-1.26-1.01-2.46h-4.34c-.37.8-.7,1.61-.99,2.44-.16.43-.07.67.41.89h-2.44c.35-.2.64-.5.83-.86.33-.69,5-11.57,5-11.57,0,0,4.72,10.88,5.03,11.55.16.4.49.71.89.86h-3.79ZM35.44,3.83s-1.21,3.01-1.77,4.34h3.57c-.83-1.97-1.8-4.34-1.8-4.34Z" fill="#004785"/><path d="M41.49,14.12S15.72,13.48.43,21.62c0,0,16.18-6.4,41.06-5.76v-1.74Z" fill="#005941"/><path d="M.43,14.12s8.69.09,14.08,2.1c0,0-11.06-.91-14.08-.46v-1.65Z" fill="#005941"/><path d="M.43,16.96s6.22-.29,9.97.09c0,0-9.05,1.1-9.97,1.55v-1.65Z" fill="#005941"/><path d="M37.22,17.24h-.13c-7.5.15-23.22,1.05-36.64,5.79v5.72h41.06v-11.51s-1.59-.05-4.28,0Z" fill="#005941"/></g></g></g></svg>